<svg xmlns="http://www.w3.org/2000/svg" viewBox="0 0 300 232" font-family="system-ui,-apple-system,Segoe UI,Roboto,sans-serif"><text x="150.0" y="13.0" font-size="10.5" fill="#333" text-anchor="middle" font-weight="bold">A golpe de vista: ¿qué función es?</text><rect x="6.0" y="22.0" width="92.0" height="70.0" rx="3" fill="#fff" stroke="#ddd" stroke-width="0.9"/><line x1="12.0" y1="57.0" x2="92.0" y2="57.0" stroke="#999" stroke-width="1.1"/><line x1="52.0" y1="28.0" x2="52.0" y2="86.0" stroke="#999" stroke-width="1.1"/><path d="M12.5,84.1 L13.0,81.9 L13.5,79.8 L14.0,77.7 L14.5,75.7 L15.0,73.8 L15.5,72.0 L16.0,70.2 L16.5,68.5 L17.0,66.8 L17.5,65.3 L18.0,63.7 L18.5,62.3 L19.0,60.9 L19.5,59.5 L20.0,58.2 L20.5,57.0 L21.0,55.9 L21.5,54.7 L22.0,53.7 L22.5,52.7 L23.0,51.7 L23.5,50.8 L24.0,50.0 L24.5,49.2 L25.0,48.4 L25.5,47.7 L26.0,47.1 L26.5,46.5 L27.0,45.9 L27.5,45.4 L28.0,45.0 L28.5,44.5 L29.0,44.2 L29.5,43.8 L30.0,43.5 L30.5,43.3 L31.0,43.0 L31.5,42.9 L32.0,42.7 L32.5,42.6 L33.0,42.5 L33.5,42.5 L34.0,42.5 L34.5,42.5 L35.0,42.6 L35.5,42.7 L36.0,42.8 L36.5,42.9 L37.0,43.1 L37.5,43.3 L38.0,43.6 L38.5,43.8 L39.0,44.1 L39.5,44.4 L40.0,44.7 L40.5,45.1 L41.0,45.4 L41.5,45.8 L42.0,46.2 L42.5,46.7 L43.0,47.1 L43.5,47.6 L44.0,48.0 L44.5,48.5 L45.0,49.0 L45.5,49.6 L46.0,50.1 L46.5,50.6 L47.0,51.2 L47.5,51.7 L48.0,52.3 L48.5,52.9 L49.0,53.4 L49.5,54.0 L50.0,54.6 L50.5,55.2 L51.0,55.8 L51.5,56.4 L52.0,57.0 L52.5,57.6 L53.0,58.2 L53.5,58.8 L54.0,59.4 L54.5,60.0 L55.0,60.6 L55.5,61.1 L56.0,61.7 L56.5,62.3 L57.0,62.8 L57.5,63.4 L58.0,63.9 L58.5,64.4 L59.0,65.0 L59.5,65.5 L60.0,66.0 L60.5,66.4 L61.0,66.9 L61.5,67.3 L62.0,67.8 L62.5,68.2 L63.0,68.6 L63.5,68.9 L64.0,69.3 L64.5,69.6 L65.0,69.9 L65.5,70.2 L66.0,70.4 L66.5,70.7 L67.0,70.9 L67.5,71.1 L68.0,71.2 L68.5,71.3 L69.0,71.4 L69.5,71.5 L70.0,71.5 L70.5,71.5 L71.0,71.5 L71.5,71.4 L72.0,71.3 L72.5,71.1 L73.0,71.0 L73.5,70.7 L74.0,70.5 L74.5,70.2 L75.0,69.8 L75.5,69.5 L76.0,69.0 L76.5,68.6 L77.0,68.1 L77.5,67.5 L78.0,66.9 L78.5,66.3 L79.0,65.6 L79.5,64.8 L80.0,64.0 L80.5,63.2 L81.0,62.3 L81.5,61.3 L82.0,60.3 L82.5,59.3 L83.0,58.1 L83.5,57.0 L84.0,55.8 L84.5,54.5 L85.0,53.1 L85.5,51.7 L86.0,50.3 L86.5,48.7 L87.0,47.2 L87.5,45.5 L88.0,43.8 L88.5,42.0 L89.0,40.2 L89.5,38.3 L90.0,36.3 L90.5,34.2 L91.0,32.1 L91.5,29.9" fill="none" stroke="#7c3aed" stroke-width="1.7"/><text x="52.0" y="104.0" font-size="7.6" fill="#333" text-anchor="middle" font-weight="bold">Polinómica: x³ − 3x</text><text x="52.0" y="115.0" font-size="6.6" fill="#999" text-anchor="middle">sin cortes ni asíntotas</text><rect x="102.0" y="22.0" width="92.0" height="70.0" rx="3" fill="#fff" stroke="#ddd" stroke-width="0.9"/><line x1="108.0" y1="57.0" x2="188.0" y2="57.0" stroke="#999" stroke-width="1.1"/><line x1="148.0" y1="28.0" x2="148.0" y2="86.0" stroke="#999" stroke-width="1.1"/><path d="M108.0,59.4 L108.2,59.4 L108.5,59.4 L108.7,59.5 L108.9,59.5 L109.1,59.5 L109.4,59.5 L109.6,59.5 L109.8,59.5 L110.1,59.5 L110.3,59.6 L110.5,59.6 L110.8,59.6 L111.0,59.6 L111.2,59.6 L111.4,59.6 L111.7,59.7 L111.9,59.7 L112.1,59.7 L112.4,59.7 L112.6,59.7 L112.8,59.7 L113.0,59.8 L113.3,59.8 L113.5,59.8 L113.7,59.8 L114.0,59.8 L114.2,59.9 L114.4,59.9 L114.6,59.9 L114.9,59.9 L115.1,59.9 L115.3,60.0 L115.6,60.0 L115.8,60.0 L116.0,60.0 L116.2,60.0 L116.5,60.1 L116.7,60.1 L116.9,60.1 L117.2,60.1 L117.4,60.2 L117.6,60.2 L117.9,60.2 L118.1,60.2 L118.3,60.3 L118.5,60.3 L118.8,60.3 L119.0,60.3 L119.2,60.4 L119.5,60.4 L119.7,60.4 L119.9,60.4 L120.1,60.5 L120.4,60.5 L120.6,60.5 L120.8,60.6 L121.1,60.6 L121.3,60.6 L121.5,60.7 L121.8,60.7 L122.0,60.7 L122.2,60.7 L122.4,60.8 L122.7,60.8 L122.9,60.9 L123.1,60.9 L123.4,60.9 L123.6,61.0 L123.8,61.0 L124.0,61.0 L124.3,61.1 L124.5,61.1 L124.7,61.2 L125.0,61.2 L125.2,61.2 L125.4,61.3 L125.6,61.3 L125.9,61.4 L126.1,61.4 L126.3,61.5 L126.6,61.5 L126.8,61.6 L127.0,61.6 L127.2,61.7 L127.5,61.7 L127.7,61.8 L127.9,61.8 L128.2,61.9 L128.4,61.9 L128.6,62.0 L128.9,62.0 L129.1,62.1 L129.3,62.2 L129.5,62.2 L129.8,62.3 L130.0,62.4 L130.2,62.4 L130.5,62.5 L130.7,62.6 L130.9,62.7 L131.1,62.7 L131.4,62.8 L131.6,62.9 L131.8,63.0 L132.1,63.1 L132.3,63.2 L132.5,63.2 L132.8,63.3 L133.0,63.4 L133.2,63.5 L133.4,63.6 L133.7,63.7 L133.9,63.9 L134.1,64.0 L134.4,64.1 L134.6,64.2 L134.8,64.3 L135.0,64.5 L135.3,64.6 L135.5,64.7 L135.7,64.9 L136.0,65.0 L136.2,65.2 L136.4,65.3 L136.6,65.5 L136.9,65.7 L137.1,65.9 L137.3,66.1 L137.6,66.3 L137.8,66.5 L138.0,66.7 L138.2,66.9 L138.5,67.2 L138.7,67.4 L138.9,67.7 L139.2,67.9 L139.4,68.2 L139.6,68.5 L139.9,68.9 L140.1,69.2 L140.3,69.6 L140.5,70.0 L140.8,70.4 L141.0,70.8 L141.2,71.3 L141.5,71.8 L141.7,72.3 L141.9,72.9 L142.1,73.5 L142.4,74.2 L142.6,74.9 L142.8,75.7 L143.1,76.6 L143.3,77.5 L143.5,78.6 L143.8,79.7 L144.0,81.0 L144.2,82.5 L144.4,84.1 L144.7,86.0" fill="none" stroke="#7c3aed" stroke-width="1.7"/><path d="M151.3,28.0 L151.6,29.9 L151.8,31.5 L152.0,33.0 L152.2,34.3 L152.5,35.4 L152.7,36.5 L152.9,37.4 L153.2,38.3 L153.4,39.1 L153.6,39.8 L153.9,40.5 L154.1,41.1 L154.3,41.7 L154.5,42.2 L154.8,42.7 L155.0,43.2 L155.2,43.6 L155.5,44.0 L155.7,44.4 L155.9,44.8 L156.1,45.1 L156.4,45.5 L156.6,45.8 L156.8,46.1 L157.1,46.3 L157.3,46.6 L157.5,46.8 L157.8,47.1 L158.0,47.3 L158.2,47.5 L158.4,47.7 L158.7,47.9 L158.9,48.1 L159.1,48.3 L159.4,48.5 L159.6,48.7 L159.8,48.8 L160.0,49.0 L160.3,49.1 L160.5,49.3 L160.7,49.4 L161.0,49.5 L161.2,49.7 L161.4,49.8 L161.6,49.9 L161.9,50.0 L162.1,50.1 L162.3,50.3 L162.6,50.4 L162.8,50.5 L163.0,50.6 L163.2,50.7 L163.5,50.8 L163.7,50.8 L163.9,50.9 L164.2,51.0 L164.4,51.1 L164.6,51.2 L164.9,51.3 L165.1,51.3 L165.3,51.4 L165.5,51.5 L165.8,51.6 L166.0,51.6 L166.2,51.7 L166.5,51.8 L166.7,51.8 L166.9,51.9 L167.1,52.0 L167.4,52.0 L167.6,52.1 L167.8,52.1 L168.1,52.2 L168.3,52.2 L168.5,52.3 L168.8,52.3 L169.0,52.4 L169.2,52.4 L169.4,52.5 L169.7,52.5 L169.9,52.6 L170.1,52.6 L170.4,52.7 L170.6,52.7 L170.8,52.8 L171.0,52.8 L171.3,52.8 L171.5,52.9 L171.7,52.9 L172.0,53.0 L172.2,53.0 L172.4,53.0 L172.6,53.1 L172.9,53.1 L173.1,53.1 L173.3,53.2 L173.6,53.2 L173.8,53.3 L174.0,53.3 L174.2,53.3 L174.5,53.3 L174.7,53.4 L174.9,53.4 L175.2,53.4 L175.4,53.5 L175.6,53.5 L175.9,53.5 L176.1,53.6 L176.3,53.6 L176.5,53.6 L176.8,53.6 L177.0,53.7 L177.2,53.7 L177.5,53.7 L177.7,53.7 L177.9,53.8 L178.1,53.8 L178.4,53.8 L178.6,53.8 L178.8,53.9 L179.1,53.9 L179.3,53.9 L179.5,53.9 L179.8,54.0 L180.0,54.0 L180.2,54.0 L180.4,54.0 L180.7,54.0 L180.9,54.1 L181.1,54.1 L181.4,54.1 L181.6,54.1 L181.8,54.1 L182.0,54.2 L182.3,54.2 L182.5,54.2 L182.7,54.2 L183.0,54.2 L183.2,54.3 L183.4,54.3 L183.6,54.3 L183.9,54.3 L184.1,54.3 L184.3,54.3 L184.6,54.4 L184.8,54.4 L185.0,54.4 L185.2,54.4 L185.5,54.4 L185.7,54.4 L185.9,54.5 L186.2,54.5 L186.4,54.5 L186.6,54.5 L186.9,54.5 L187.1,54.5 L187.3,54.5 L187.5,54.6 L187.8,54.6 L188.0,54.6" fill="none" stroke="#7c3aed" stroke-width="1.7"/><text x="148.0" y="104.0" font-size="7.6" fill="#333" text-anchor="middle" font-weight="bold">Racional: 1/x</text><text x="148.0" y="115.0" font-size="6.6" fill="#999" text-anchor="middle">denominador = 0 → muro</text><rect x="198.0" y="22.0" width="92.0" height="70.0" rx="3" fill="#fff" stroke="#ddd" stroke-width="0.9"/><line x1="204.0" y1="71.5" x2="284.0" y2="71.5" stroke="#999" stroke-width="1.1"/><line x1="217.3" y1="28.0" x2="217.3" y2="86.0" stroke="#999" stroke-width="1.1"/><path d="M217.3,71.5 L217.8,68.9 L218.2,67.9 L218.6,67.1 L219.0,66.4 L219.4,65.8 L219.8,65.2 L220.2,64.7 L220.7,64.2 L221.1,63.8 L221.5,63.4 L221.9,63.0 L222.3,62.6 L222.8,62.3 L223.2,61.9 L223.6,61.6 L224.0,61.2 L224.4,60.9 L224.8,60.6 L225.2,60.3 L225.7,60.0 L226.1,59.8 L226.5,59.5 L226.9,59.2 L227.3,58.9 L227.8,58.7 L228.2,58.4 L228.6,58.2 L229.0,57.9 L229.4,57.7 L229.8,57.5 L230.2,57.2 L230.7,57.0 L231.1,56.8 L231.5,56.6 L231.9,56.3 L232.3,56.1 L232.8,55.9 L233.2,55.7 L233.6,55.5 L234.0,55.3 L234.4,55.1 L234.8,54.9 L235.2,54.7 L235.7,54.5 L236.1,54.3 L236.5,54.1 L236.9,53.9 L237.3,53.7 L237.8,53.6 L238.2,53.4 L238.6,53.2 L239.0,53.0 L239.4,52.8 L239.8,52.7 L240.2,52.5 L240.7,52.3 L241.1,52.1 L241.5,52.0 L241.9,51.8 L242.3,51.6 L242.8,51.5 L243.2,51.3 L243.6,51.2 L244.0,51.0 L244.4,50.8 L244.8,50.7 L245.2,50.5 L245.7,50.4 L246.1,50.2 L246.5,50.1 L246.9,49.9 L247.3,49.8 L247.8,49.6 L248.2,49.4 L248.6,49.3 L249.0,49.2 L249.4,49.0 L249.8,48.9 L250.2,48.7 L250.7,48.6 L251.1,48.4 L251.5,48.3 L251.9,48.1 L252.3,48.0 L252.8,47.9 L253.2,47.7 L253.6,47.6 L254.0,47.5 L254.4,47.3 L254.8,47.2 L255.2,47.0 L255.7,46.9 L256.1,46.8 L256.5,46.6 L256.9,46.5 L257.3,46.4 L257.8,46.3 L258.2,46.1 L258.6,46.0 L259.0,45.9 L259.4,45.7 L259.8,45.6 L260.2,45.5 L260.7,45.4 L261.1,45.2 L261.5,45.1 L261.9,45.0 L262.3,44.9 L262.8,44.7 L263.2,44.6 L263.6,44.5 L264.0,44.4 L264.4,44.3 L264.8,44.1 L265.2,44.0 L265.7,43.9 L266.1,43.8 L266.5,43.7 L266.9,43.5 L267.3,43.4 L267.8,43.3 L268.2,43.2 L268.6,43.1 L269.0,43.0 L269.4,42.8 L269.8,42.7 L270.2,42.6 L270.7,42.5 L271.1,42.4 L271.5,42.3 L271.9,42.2 L272.3,42.1 L272.8,41.9 L273.2,41.8 L273.6,41.7 L274.0,41.6 L274.4,41.5 L274.8,41.4 L275.2,41.3 L275.7,41.2 L276.1,41.1 L276.5,41.0 L276.9,40.8 L277.3,40.7 L277.8,40.6 L278.2,40.5 L278.6,40.4 L279.0,40.3 L279.4,40.2 L279.8,40.1 L280.2,40.0 L280.7,39.9 L281.1,39.8 L281.5,39.7 L281.9,39.6 L282.3,39.5 L282.8,39.4 L283.2,39.3 L283.6,39.2 L284.0,39.1" fill="none" stroke="#7c3aed" stroke-width="1.7"/><text x="244.0" y="104.0" font-size="7.6" fill="#333" text-anchor="middle" font-weight="bold">Radical: √x</text><text x="244.0" y="115.0" font-size="6.6" fill="#999" text-anchor="middle">solo si lo de dentro ≥ 0</text><rect x="6.0" y="126.0" width="92.0" height="70.0" rx="3" fill="#fff" stroke="#ddd" stroke-width="0.9"/><line x1="12.0" y1="161.0" x2="92.0" y2="161.0" stroke="#999" stroke-width="1.1"/><line x1="25.3" y1="132.0" x2="25.3" y2="190.0" stroke="#999" stroke-width="1.1"/><path d="M26.0,190.0 L26.4,185.3 L26.8,182.2 L27.2,179.8 L27.7,177.9 L28.1,176.3 L28.5,175.0 L28.9,173.8 L29.3,172.7 L29.7,171.8 L30.1,170.9 L30.5,170.1 L31.0,169.4 L31.4,168.7 L31.8,168.0 L32.2,167.4 L32.6,166.9 L33.0,166.3 L33.4,165.8 L33.8,165.3 L34.2,164.9 L34.7,164.5 L35.1,164.0 L35.5,163.6 L35.9,163.2 L36.3,162.9 L36.7,162.5 L37.1,162.2 L37.5,161.8 L38.0,161.5 L38.4,161.2 L38.8,160.9 L39.2,160.6 L39.6,160.3 L40.0,160.1 L40.4,159.8 L40.9,159.5 L41.3,159.3 L41.7,159.0 L42.1,158.8 L42.5,158.6 L42.9,158.3 L43.3,158.1 L43.7,157.9 L44.1,157.7 L44.6,157.5 L45.0,157.3 L45.4,157.1 L45.8,156.9 L46.2,156.7 L46.6,156.5 L47.0,156.3 L47.5,156.1 L47.9,155.9 L48.3,155.8 L48.7,155.6 L49.1,155.4 L49.5,155.2 L49.9,155.1 L50.3,154.9 L50.8,154.8 L51.2,154.6 L51.6,154.5 L52.0,154.3 L52.4,154.2 L52.8,154.0 L53.2,153.9 L53.6,153.7 L54.0,153.6 L54.5,153.4 L54.9,153.3 L55.3,153.2 L55.7,153.0 L56.1,152.9 L56.5,152.8 L56.9,152.7 L57.3,152.5 L57.8,152.4 L58.2,152.3 L58.6,152.2 L59.0,152.0 L59.4,151.9 L59.8,151.8 L60.2,151.7 L60.6,151.6 L61.1,151.5 L61.5,151.4 L61.9,151.3 L62.3,151.1 L62.7,151.0 L63.1,150.9 L63.5,150.8 L64.0,150.7 L64.4,150.6 L64.8,150.5 L65.2,150.4 L65.6,150.3 L66.0,150.2 L66.4,150.1 L66.8,150.0 L67.2,149.9 L67.7,149.8 L68.1,149.7 L68.5,149.6 L68.9,149.6 L69.3,149.5 L69.7,149.4 L70.1,149.3 L70.5,149.2 L71.0,149.1 L71.4,149.0 L71.8,148.9 L72.2,148.8 L72.6,148.8 L73.0,148.7 L73.4,148.6 L73.8,148.5 L74.3,148.4 L74.7,148.4 L75.1,148.3 L75.5,148.2 L75.9,148.1 L76.3,148.0 L76.7,148.0 L77.2,147.9 L77.6,147.8 L78.0,147.7 L78.4,147.6 L78.8,147.6 L79.2,147.5 L79.6,147.4 L80.0,147.4 L80.5,147.3 L80.9,147.2 L81.3,147.1 L81.7,147.1 L82.1,147.0 L82.5,146.9 L82.9,146.9 L83.3,146.8 L83.8,146.7 L84.2,146.7 L84.6,146.6 L85.0,146.5 L85.4,146.4 L85.8,146.4 L86.2,146.3 L86.6,146.3 L87.0,146.2 L87.5,146.1 L87.9,146.1 L88.3,146.0 L88.7,145.9 L89.1,145.9 L89.5,145.8 L89.9,145.7 L90.3,145.7 L90.8,145.6 L91.2,145.6 L91.6,145.5 L92.0,145.4" fill="none" stroke="#7c3aed" stroke-width="1.7"/><text x="52.0" y="208.0" font-size="7.6" fill="#333" text-anchor="middle" font-weight="bold">Logarítmica: ln x</text><text x="52.0" y="219.0" font-size="6.6" fill="#999" text-anchor="middle">muro en x = 0; crece lento</text><rect x="102.0" y="126.0" width="92.0" height="70.0" rx="3" fill="#fff" stroke="#ddd" stroke-width="0.9"/><line x1="108.0" y1="181.7" x2="188.0" y2="181.7" stroke="#999" stroke-width="1.1"/><line x1="156.0" y1="132.0" x2="156.0" y2="190.0" stroke="#999" stroke-width="1.1"/><path d="M108.0,181.3 L108.5,181.3 L109.0,181.3 L109.5,181.3 L110.0,181.2 L110.5,181.2 L111.0,181.2 L111.5,181.2 L112.0,181.2 L112.5,181.2 L113.0,181.2 L113.5,181.1 L114.0,181.1 L114.5,181.1 L115.0,181.1 L115.5,181.1 L116.0,181.0 L116.5,181.0 L117.0,181.0 L117.5,181.0 L118.0,180.9 L118.5,180.9 L119.0,180.9 L119.5,180.9 L120.0,180.8 L120.5,180.8 L121.0,180.8 L121.5,180.8 L122.0,180.7 L122.5,180.7 L123.0,180.7 L123.5,180.6 L124.0,180.6 L124.5,180.6 L125.0,180.5 L125.5,180.5 L126.0,180.4 L126.5,180.4 L127.0,180.4 L127.5,180.3 L128.0,180.3 L128.5,180.2 L129.0,180.2 L129.5,180.1 L130.0,180.1 L130.5,180.0 L131.0,180.0 L131.5,179.9 L132.0,179.9 L132.5,179.8 L133.0,179.7 L133.5,179.7 L134.0,179.6 L134.5,179.6 L135.0,179.5 L135.5,179.4 L136.0,179.3 L136.5,179.3 L137.0,179.2 L137.5,179.1 L138.0,179.0 L138.5,178.9 L139.0,178.9 L139.5,178.8 L140.0,178.7 L140.5,178.6 L141.0,178.5 L141.5,178.4 L142.0,178.3 L142.5,178.2 L143.0,178.0 L143.5,177.9 L144.0,177.8 L144.5,177.7 L145.0,177.5 L145.5,177.4 L146.0,177.3 L146.5,177.1 L147.0,177.0 L147.5,176.8 L148.0,176.7 L148.5,176.5 L149.0,176.4 L149.5,176.2 L150.0,176.0 L150.5,175.8 L151.0,175.7 L151.5,175.5 L152.0,175.3 L152.5,175.1 L153.0,174.8 L153.5,174.6 L154.0,174.4 L154.5,174.2 L155.0,173.9 L155.5,173.7 L156.0,173.4 L156.5,173.2 L157.0,172.9 L157.5,172.6 L158.0,172.3 L158.5,172.0 L159.0,171.7 L159.5,171.4 L160.0,171.1 L160.5,170.7 L161.0,170.4 L161.5,170.0 L162.0,169.7 L162.5,169.3 L163.0,168.9 L163.5,168.5 L164.0,168.1 L164.5,167.6 L165.0,167.2 L165.5,166.7 L166.0,166.2 L166.5,165.7 L167.0,165.2 L167.5,164.7 L168.0,164.2 L168.5,163.6 L169.0,163.0 L169.5,162.4 L170.0,161.8 L170.5,161.2 L171.0,160.6 L171.5,159.9 L172.0,159.2 L172.5,158.5 L173.0,157.7 L173.5,157.0 L174.0,156.2 L174.5,155.4 L175.0,154.5 L175.5,153.7 L176.0,152.8 L176.5,151.9 L177.0,150.9 L177.5,150.0 L178.0,148.9 L178.5,147.9 L179.0,146.8 L179.5,145.7 L180.0,144.6 L180.5,143.4 L181.0,142.2 L181.5,140.9 L182.0,139.6 L182.5,138.3 L183.0,136.9 L183.5,135.5 L184.0,134.0 L184.5,132.5" fill="none" stroke="#7c3aed" stroke-width="1.7"/><text x="148.0" y="208.0" font-size="7.6" fill="#333" text-anchor="middle" font-weight="bold">Exponencial: eˣ</text><text x="148.0" y="219.0" font-size="6.6" fill="#999" text-anchor="middle">suelo en y = 0; sube rápido</text><rect x="198.0" y="126.0" width="92.0" height="70.0" rx="3" fill="#fff" stroke="#ddd" stroke-width="0.9"/><line x1="204.0" y1="177.1" x2="284.0" y2="177.1" stroke="#999" stroke-width="1.1"/><line x1="244.0" y1="132.0" x2="244.0" y2="190.0" stroke="#999" stroke-width="1.1"/><path d="M204.0,138.4 L204.5,138.9 L205.0,139.4 L205.5,139.9 L206.0,140.4 L206.5,140.9 L207.0,141.3 L207.5,141.8 L208.0,142.3 L208.5,142.8 L209.0,143.3 L209.5,143.8 L210.0,144.2 L210.5,144.7 L211.0,145.2 L211.5,145.7 L212.0,146.2 L212.5,146.7 L213.0,147.1 L213.5,147.6 L214.0,148.1 L214.5,148.6 L215.0,149.1 L215.5,149.6 L216.0,150.0 L216.5,150.5 L217.0,151.0 L217.5,151.5 L218.0,152.0 L218.5,152.5 L219.0,152.9 L219.5,153.4 L220.0,153.9 L220.5,154.4 L221.0,154.9 L221.5,155.4 L222.0,155.8 L222.5,156.3 L223.0,156.8 L223.5,157.3 L224.0,157.8 L224.5,158.3 L225.0,158.7 L225.5,159.2 L226.0,159.7 L226.5,160.2 L227.0,160.7 L227.5,161.2 L228.0,161.6 L228.5,162.1 L229.0,162.6 L229.5,163.1 L230.0,163.6 L230.5,164.1 L231.0,164.5 L231.5,165.0 L232.0,165.5 L232.5,166.0 L233.0,166.5 L233.5,167.0 L234.0,167.4 L234.5,167.9 L235.0,168.4 L235.5,168.9 L236.0,169.4 L236.5,169.9 L237.0,170.3 L237.5,170.8 L238.0,171.3 L238.5,171.8 L239.0,172.3 L239.5,172.8 L240.0,173.2 L240.5,173.7 L241.0,174.2 L241.5,174.7 L242.0,175.2 L242.5,175.7 L243.0,176.1 L243.5,176.6 L244.0,177.1 L244.5,176.6 L245.0,176.1 L245.5,175.7 L246.0,175.2 L246.5,174.7 L247.0,174.2 L247.5,173.7 L248.0,173.2 L248.5,172.8 L249.0,172.3 L249.5,171.8 L250.0,171.3 L250.5,170.8 L251.0,170.3 L251.5,169.9 L252.0,169.4 L252.5,168.9 L253.0,168.4 L253.5,167.9 L254.0,167.4 L254.5,167.0 L255.0,166.5 L255.5,166.0 L256.0,165.5 L256.5,165.0 L257.0,164.5 L257.5,164.1 L258.0,163.6 L258.5,163.1 L259.0,162.6 L259.5,162.1 L260.0,161.6 L260.5,161.2 L261.0,160.7 L261.5,160.2 L262.0,159.7 L262.5,159.2 L263.0,158.7 L263.5,158.3 L264.0,157.8 L264.5,157.3 L265.0,156.8 L265.5,156.3 L266.0,155.8 L266.5,155.4 L267.0,154.9 L267.5,154.4 L268.0,153.9 L268.5,153.4 L269.0,152.9 L269.5,152.5 L270.0,152.0 L270.5,151.5 L271.0,151.0 L271.5,150.5 L272.0,150.0 L272.5,149.6 L273.0,149.1 L273.5,148.6 L274.0,148.1 L274.5,147.6 L275.0,147.1 L275.5,146.7 L276.0,146.2 L276.5,145.7 L277.0,145.2 L277.5,144.7 L278.0,144.2 L278.5,143.8 L279.0,143.3 L279.5,142.8 L280.0,142.3 L280.5,141.8 L281.0,141.3 L281.5,140.9 L282.0,140.4 L282.5,139.9 L283.0,139.4 L283.5,138.9 L284.0,138.4" fill="none" stroke="#7c3aed" stroke-width="1.7"/><text x="244.0" y="208.0" font-size="7.6" fill="#333" text-anchor="middle" font-weight="bold">Valor absoluto: |x|</text><text x="244.0" y="219.0" font-size="6.6" fill="#999" text-anchor="middle">pico; nunca es negativo</text></svg>