<svg xmlns="http://www.w3.org/2000/svg" viewBox="0 0 300 164" font-family="system-ui,-apple-system,Segoe UI,Roboto,sans-serif"><text x="150.0" y="13.0" font-size="10.5" fill="#333" text-anchor="middle" font-weight="bold">Sucesi&#243;n mon&#243;tona: &#191;hacia d&#243;nde van?</text><text x="74.0" y="30.0" font-size="8.6" fill="#3b82f6" text-anchor="middle" font-weight="bold">DECRECIENTE</text><rect x="10.0" y="36.0" width="128.0" height="74.0" rx="4" fill="#fff" stroke="#ddd" stroke-width="1"/><line x1="16.0" y1="102.0" x2="134.0" y2="102.0" stroke="#999" stroke-width="1"/><line x1="16.0" y1="106.0" x2="16.0" y2="42.0" stroke="#999" stroke-width="1"/><circle cx="22.0" cy="50.0" r="3.2" fill="#3b82f6" stroke="#3b82f6" stroke-width="1.6"/><text x="22.0" y="112.0" font-size="6.8" fill="#999" text-anchor="middle">1</text><circle cx="40.0" cy="76.0" r="3.2" fill="#3b82f6" stroke="#3b82f6" stroke-width="1.6"/><text x="40.0" y="112.0" font-size="6.8" fill="#999" text-anchor="middle">2</text><circle cx="58.0" cy="84.7" r="3.2" fill="#3b82f6" stroke="#3b82f6" stroke-width="1.6"/><text x="58.0" y="112.0" font-size="6.8" fill="#999" text-anchor="middle">3</text><circle cx="76.0" cy="89.0" r="3.2" fill="#3b82f6" stroke="#3b82f6" stroke-width="1.6"/><text x="76.0" y="112.0" font-size="6.8" fill="#999" text-anchor="middle">4</text><circle cx="94.0" cy="91.6" r="3.2" fill="#3b82f6" stroke="#3b82f6" stroke-width="1.6"/><text x="94.0" y="112.0" font-size="6.8" fill="#999" text-anchor="middle">5</text><circle cx="112.0" cy="93.3" r="3.2" fill="#3b82f6" stroke="#3b82f6" stroke-width="1.6"/><text x="112.0" y="112.0" font-size="6.8" fill="#999" text-anchor="middle">6</text><text x="74.0" y="124.0" font-size="9.5" fill="#3b82f6" text-anchor="middle" font-weight="bold">a<tspan dy="2" font-size="7">n</tspan><tspan dy="-2"> </tspan>= 1/n</text><text x="74.0" y="136.0" font-size="7.4" fill="#333" text-anchor="middle">1&#160;&#160;0,5&#160;&#160;0,33&#160;&#160;0,25&#8230;</text><text x="226.0" y="30.0" font-size="8.6" fill="#16a34a" text-anchor="middle" font-weight="bold">CRECIENTE</text><rect x="162.0" y="36.0" width="128.0" height="74.0" rx="4" fill="#fff" stroke="#ddd" stroke-width="1"/><line x1="168.0" y1="102.0" x2="286.0" y2="102.0" stroke="#999" stroke-width="1"/><line x1="168.0" y1="106.0" x2="168.0" y2="42.0" stroke="#999" stroke-width="1"/><circle cx="174.0" cy="76.0" r="3.2" fill="#16a34a" stroke="#16a34a" stroke-width="1.6"/><text x="174.0" y="112.0" font-size="6.8" fill="#999" text-anchor="middle">1</text><circle cx="192.0" cy="67.3" r="3.2" fill="#16a34a" stroke="#16a34a" stroke-width="1.6"/><text x="192.0" y="112.0" font-size="6.8" fill="#999" text-anchor="middle">2</text><circle cx="210.0" cy="63.0" r="3.2" fill="#16a34a" stroke="#16a34a" stroke-width="1.6"/><text x="210.0" y="112.0" font-size="6.8" fill="#999" text-anchor="middle">3</text><circle cx="228.0" cy="60.4" r="3.2" fill="#16a34a" stroke="#16a34a" stroke-width="1.6"/><text x="228.0" y="112.0" font-size="6.8" fill="#999" text-anchor="middle">4</text><circle cx="246.0" cy="58.7" r="3.2" fill="#16a34a" stroke="#16a34a" stroke-width="1.6"/><text x="246.0" y="112.0" font-size="6.8" fill="#999" text-anchor="middle">5</text><circle cx="264.0" cy="57.4" r="3.2" fill="#16a34a" stroke="#16a34a" stroke-width="1.6"/><text x="264.0" y="112.0" font-size="6.8" fill="#999" text-anchor="middle">6</text><text x="226.0" y="124.0" font-size="9.5" fill="#16a34a" text-anchor="middle" font-weight="bold">a<tspan dy="2" font-size="7">n</tspan><tspan dy="-2"> </tspan>= n/(n+1)</text><text x="226.0" y="136.0" font-size="7.4" fill="#333" text-anchor="middle">0,5&#160;&#160;0,67&#160;&#160;0,75&#160;&#160;0,8&#8230;</text><text x="150.0" y="156.0" font-size="8.2" fill="#333" text-anchor="middle" font-weight="bold">Para contestar, calcula 3 o 4 t&#233;rminos y mira si suben o bajan.</text></svg>