<svg xmlns="http://www.w3.org/2000/svg" viewBox="0 0 300 150" role="img"><rect width="300" height="150" fill="#fff"/><polyline points="36,68 36,34 88,34" fill="none" stroke="#333" stroke-width="1.6"/><polyline points="112,34 180,34 180,58" fill="none" stroke="#333" stroke-width="1.6"/><polyline points="180,88 180,112 36,112 36,76" fill="none" stroke="#333" stroke-width="1.6"/><polyline points="180,44 250,44 250,62" fill="none" stroke="#999" stroke-width="1.6"/><polyline points="250,84 250,102 180,102" fill="none" stroke="#999" stroke-width="1.6"/><line x1="25" y1="68" x2="47" y2="68" stroke="#333" stroke-width="2"/><line x1="31" y1="76" x2="41" y2="76" stroke="#333" stroke-width="3.2"/><text x="51" y="59" text-anchor="middle" font-size="11" fill="#ef4444" font-weight="700" font-family="Arial, sans-serif">+</text><text x="51" y="91" text-anchor="middle" font-size="11" fill="#3b82f6" font-weight="700" font-family="Arial, sans-serif">−</text><circle cx="100" cy="34" r="12" fill="#fff" stroke="#999" stroke-width="1.6"/><text x="100" y="38" text-anchor="middle" font-size="11" fill="#999" font-weight="700" font-family="Arial, sans-serif">A</text><circle cx="250" cy="73" r="12" fill="#fef2f2" stroke="#ef4444" stroke-width="1.6"/><text x="250" y="77" text-anchor="middle" font-size="11" fill="#ef4444" font-weight="700" font-family="Arial, sans-serif">V</text><rect x="173" y="58.0" width="14" height="30" rx="3" fill="#ede9fe" stroke="#7c3aed" stroke-width="1.6"/><text x="169" y="76" text-anchor="end" font-size="10" fill="#7c3aed" font-weight="700" font-family="Arial, sans-serif">R</text><circle cx="180" cy="44" r="3" fill="#333"/><circle cx="180" cy="102" r="3" fill="#333"/><text x="238" y="30" text-anchor="middle" font-size="9.5" fill="#ef4444" font-weight="700" font-family="Arial, sans-serif">EN PARALELO</text><text x="150" y="130" text-anchor="middle" font-size="9.5" fill="#ef4444" font-weight="700" font-family="Arial, sans-serif">Voltímetro: mide V, en paralelo, resistencia muy grande</text><text x="150" y="144" text-anchor="middle" font-size="9" fill="#666" font-family="Arial, sans-serif">Así casi no se desvía corriente por él</text></svg>